<svg xmlns="http://www.w3.org/2000/svg" viewBox="0 0 900 1200">
<defs><linearGradient id="bg" x1="0" y1="0" x2="0" y2="1"><stop stop-color="#111a22"/><stop offset="1" stop-color="#05090d"/></linearGradient><linearGradient id="warm" x1="0" y1="0" x2="1" y2="1"><stop stop-color="#d7a65b" stop-opacity=".9"/><stop offset="1" stop-color="#8b5b2f" stop-opacity=".25"/></linearGradient></defs>
<rect width="900" height="1200" fill="url(#bg)"/>
<path d="M0 720 Q180 610 360 700 T720 650 T900 700 V1200 H0Z" fill="#dfe7e9" opacity=".12"/>
<g fill="none" stroke="#b8c8d0" stroke-opacity=".22" stroke-width="4">
<path d="M40 820 H860"/><path d="M80 900 H820"/><path d="M130 1010 H770"/>
</g>
<g fill="#f3f6f5" opacity=".82">
<circle cx="20" cy="308" r="5"/><circle cx="157" cy="391" r="3"/><circle cx="294" cy="474" r="3"/><circle cx="431" cy="557" r="5"/><circle cx="568" cy="640" r="3"/><circle cx="705" cy="723" r="3"/><circle cx="842" cy="806" r="5"/><circle cx="119" cy="189" r="3"/><circle cx="256" cy="272" r="3"/><circle cx="393" cy="355" r="5"/><circle cx="530" cy="438" r="3"/><circle cx="667" cy="521" r="3"/><circle cx="804" cy="604" r="5"/><circle cx="81" cy="687" r="3"/><circle cx="218" cy="770" r="3"/><circle cx="355" cy="153" r="5"/><circle cx="492" cy="236" r="3"/><circle cx="629" cy="319" r="3"/><circle cx="766" cy="402" r="5"/><circle cx="43" cy="485" r="3"/><circle cx="180" cy="568" r="3"/><circle cx="317" cy="651" r="5"/><circle cx="454" cy="734" r="3"/><circle cx="591" cy="817" r="3"/><circle cx="728" cy="200" r="5"/><circle cx="865" cy="283" r="3"/><circle cx="142" cy="366" r="3"/><circle cx="279" cy="449" r="5"/>
</g>




<g fill="#28343a"><path d="M0 790 L180 650 L350 790V1060H0Z"/><path d="M360 790 L520 620 L700 790V1060H360Z"/><path d="M690 790 L800 680 L900 790V1060H690Z"/></g><path d="M0 1080H900" stroke="#e4ecee" stroke-width="22" opacity=".4"/>



<text x="60" y="100" fill="#f0d7a5" font-family="sans-serif" font-size="18" letter-spacing="4" opacity=".75">BJ-003 · 城南的第一场雪</text>
<text x="60" y="1120" fill="#f5f2ea" font-family="sans-serif" font-size="38" font-weight="700">城南慢下来</text>
<text x="60" y="1160" fill="#b5c0c5" font-family="sans-serif" font-size="17">busy snowy street, people wrapped in coats</text>
<text x="60" y="1185" fill="#7f8b91" font-family="sans-serif" font-size="13">故事化复原插画 · 非史料影像</text>
</svg>