<svg xmlns="http://www.w3.org/2000/svg" viewBox="0 0 1200 800" role="img" aria-label="晨光照亮钟楼和北京街道的场景复原">
  <defs>
    <linearGradient id="sky" x1="0" y1="0" x2="0" y2="1">
      <stop offset="0" stop-color="#617486"/><stop offset=".58" stop-color="#d49b5f"/><stop offset="1" stop-color="#372e28"/>
    </linearGradient>
    <linearGradient id="road" x1="0" y1="0" x2="0" y2="1"><stop stop-color="#79624d"/><stop offset="1" stop-color="#211b17"/></linearGradient>
    <radialGradient id="sun"><stop stop-color="#ffd899" stop-opacity=".95"/><stop offset="1" stop-color="#e89846" stop-opacity="0"/></radialGradient>
    <filter id="soft"><feGaussianBlur stdDeviation="14"/></filter>
  </defs>
  <rect width="1200" height="800" fill="url(#sky)"/>
  <circle cx="930" cy="165" r="130" fill="url(#sun)" opacity=".85"/>
  <path d="M0 390 L1200 345 L1200 800 L0 800 Z" fill="url(#road)"/>
  <g opacity=".98">
    <path d="M0 280 H300 L355 340 H0 Z" fill="#171b1d"/><path d="M0 260 H305 L330 280 H0 Z" fill="#22282b"/>
    <path d="M900 270 H1200 V355 H850 Z" fill="#191e21"/><path d="M875 250 H1200 V276 H900 Z" fill="#242b2f"/>
    <g transform="translate(520 130)">
      <rect x="80" y="210" width="250" height="205" fill="#222a2d"/>
      <rect x="105" y="150" width="200" height="90" fill="#2a3337"/>
      <path d="M70 150 L205 78 L340 150 Z" fill="#4b4037"/>
      <path d="M92 138 L205 98 L318 138" fill="none" stroke="#465157" stroke-width="9"/>
      <rect x="145" y="270" width="120" height="145" fill="#121718"/>
      <circle cx="205" cy="200" r="28" fill="#101516" stroke="#607079" stroke-width="5"/>
    </g>
  </g>
  <g opacity=".78">
    <rect x="70" y="330" width="12" height="165" fill="#2b2f31"/><rect x="240" y="330" width="12" height="150" fill="#292e30"/>
    <rect x="1000" y="330" width="12" height="165" fill="#2b2f31"/><rect x="1110" y="330" width="12" height="150" fill="#292e30"/>
    
  </g>
  
  
    <g transform="translate(420 545) scale(0.75)">
      <ellipse cx="0" cy="78" rx="34" ry="10" fill="#000" opacity=".28"/>
      <circle cx="0" cy="0" r="13" fill="#a67c5a"/>
      <path d="M-20 15 Q0 3 20 15 L25 78 L-25 78 Z" fill="#37454d"/>
      
      
    </g>
    <g transform="translate(590 540) scale(0.7)">
      <ellipse cx="0" cy="78" rx="34" ry="10" fill="#000" opacity=".28"/>
      <circle cx="0" cy="0" r="13" fill="#a67c5a"/>
      <path d="M-20 15 Q0 3 20 15 L25 78 L-25 78 Z" fill="#5a4b40"/>
      
      
    </g>
  <g opacity=".28" filter="url(#soft)"><ellipse cx="600" cy="620" rx="420" ry="75" fill="#cfd8d8"/></g>
  <rect x="0" y="0" width="1200" height="800" fill="#000" opacity="0.08"/>
  <text x="52" y="72" fill="#f0d3a0" font-size="25" font-family="system-ui,-apple-system,sans-serif" letter-spacing="4">S07 · 看着这座城</text>
  </svg>